<mxfile host="app.diagrams.net" modified="2024-07-23T01:52:55.117Z" agent="Mozilla/5.0 (Windows NT 10.0; Win64; x64) AppleWebKit/537.36 (KHTML, like Gecko) Chrome/126.0.0.0 Safari/537.36" etag="7XX_p_ntKvm2orI0ZOux" version="24.7.3" type="github">
  <diagram name="Page-1" id="c7558073-3199-34d8-9f00-42111426c3f3">
    <mxGraphModel dx="11921" dy="11574" grid="1" gridSize="10" guides="1" tooltips="1" connect="1" arrows="1" fold="1" page="1" pageScale="1" pageWidth="1169" pageHeight="827" background="none" math="0" shadow="0">
      <root>
        <mxCell id="0" />
        <mxCell id="1" parent="0" />
        <mxCell id="X9ass70m3cK7fkNfl3eS-96" value="&lt;b&gt;&lt;font color=&quot;#0000cc&quot;&gt;Journey -&amp;nbsp; Pharmacy | AREA&lt;/font&gt;&lt;/b&gt;" style="text;html=1;align=center;verticalAlign=middle;whiteSpace=wrap;rounded=0;fillColor=none;strokeColor=#6c8ebf;" parent="1" vertex="1">
          <mxGeometry x="-10440" y="-10700" width="190" height="30" as="geometry" />
        </mxCell>
        <mxCell id="8O94-uSJWb2Wjs44FVSJ-8" style="edgeStyle=orthogonalEdgeStyle;rounded=0;orthogonalLoop=1;jettySize=auto;html=1;entryX=0.5;entryY=0;entryDx=0;entryDy=0;" edge="1" parent="1" source="X9ass70m3cK7fkNfl3eS-97" target="8O94-uSJWb2Wjs44FVSJ-2">
          <mxGeometry relative="1" as="geometry" />
        </mxCell>
        <mxCell id="X9ass70m3cK7fkNfl3eS-97" value="Pharmacy" style="ellipse;whiteSpace=wrap;html=1;aspect=fixed;fillColor=#008a00;strokeColor=#005700;fontColor=#ffffff;" parent="1" vertex="1">
          <mxGeometry x="-10385" y="-10600" width="80" height="80" as="geometry" />
        </mxCell>
        <mxCell id="8O94-uSJWb2Wjs44FVSJ-9" style="edgeStyle=orthogonalEdgeStyle;rounded=0;orthogonalLoop=1;jettySize=auto;html=1;exitX=0.5;exitY=1;exitDx=0;exitDy=0;entryX=0.5;entryY=0;entryDx=0;entryDy=0;" edge="1" parent="1" source="8O94-uSJWb2Wjs44FVSJ-2" target="8O94-uSJWb2Wjs44FVSJ-3">
          <mxGeometry relative="1" as="geometry" />
        </mxCell>
        <mxCell id="8O94-uSJWb2Wjs44FVSJ-2" value="User Details (Generated Receipts)" style="rounded=1;whiteSpace=wrap;html=1;fillColor=#0050ef;fontColor=#ffffff;strokeColor=#001DBC;" vertex="1" parent="1">
          <mxGeometry x="-10405" y="-10430" width="120" height="60" as="geometry" />
        </mxCell>
        <mxCell id="8O94-uSJWb2Wjs44FVSJ-10" style="edgeStyle=orthogonalEdgeStyle;rounded=0;orthogonalLoop=1;jettySize=auto;html=1;exitX=1;exitY=0.5;exitDx=0;exitDy=0;" edge="1" parent="1" source="8O94-uSJWb2Wjs44FVSJ-3" target="8O94-uSJWb2Wjs44FVSJ-5">
          <mxGeometry relative="1" as="geometry" />
        </mxCell>
        <mxCell id="8O94-uSJWb2Wjs44FVSJ-3" value="Verifies User (Contract)" style="rhombus;whiteSpace=wrap;html=1;fillColor=#e1d5e7;strokeColor=#9673a6;" vertex="1" parent="1">
          <mxGeometry x="-10392.5" y="-10300" width="95" height="100" as="geometry" />
        </mxCell>
        <mxCell id="8O94-uSJWb2Wjs44FVSJ-12" style="edgeStyle=orthogonalEdgeStyle;rounded=0;orthogonalLoop=1;jettySize=auto;html=1;exitX=1;exitY=0.5;exitDx=0;exitDy=0;entryX=0;entryY=0.5;entryDx=0;entryDy=0;" edge="1" parent="1" source="8O94-uSJWb2Wjs44FVSJ-4" target="8O94-uSJWb2Wjs44FVSJ-7">
          <mxGeometry relative="1" as="geometry" />
        </mxCell>
        <mxCell id="8O94-uSJWb2Wjs44FVSJ-4" value="Generate Receipts" style="ellipse;whiteSpace=wrap;html=1;aspect=fixed;fillColor=#d80073;strokeColor=#A50040;fontColor=#ffffff;" vertex="1" parent="1">
          <mxGeometry x="-9900" y="-10290" width="80" height="80" as="geometry" />
        </mxCell>
        <mxCell id="8O94-uSJWb2Wjs44FVSJ-11" style="edgeStyle=orthogonalEdgeStyle;rounded=0;orthogonalLoop=1;jettySize=auto;html=1;exitX=1;exitY=0.5;exitDx=0;exitDy=0;entryX=0;entryY=0.5;entryDx=0;entryDy=0;" edge="1" parent="1" source="8O94-uSJWb2Wjs44FVSJ-5" target="8O94-uSJWb2Wjs44FVSJ-4">
          <mxGeometry relative="1" as="geometry" />
        </mxCell>
        <mxCell id="8O94-uSJWb2Wjs44FVSJ-5" value="Payment - Pharmacy" style="shape=parallelogram;perimeter=parallelogramPerimeter;whiteSpace=wrap;html=1;fixedSize=1;fillColor=#a20025;fontColor=#ffffff;strokeColor=#6F0000;" vertex="1" parent="1">
          <mxGeometry x="-10160" y="-10280" width="160" height="60" as="geometry" />
        </mxCell>
        <mxCell id="8O94-uSJWb2Wjs44FVSJ-7" value="Exit" style="rounded=1;whiteSpace=wrap;html=1;fillColor=#d5e8d4;strokeColor=#82b366;dashed=1;dashPattern=8 8;fillStyle=solid;opacity=80;" vertex="1" parent="1">
          <mxGeometry x="-9690" y="-10275" width="100" height="50" as="geometry" />
        </mxCell>
      </root>
    </mxGraphModel>
  </diagram>
</mxfile>
